<?xml version="1.0" standalone="no"?>
<!DOCTYPE svg PUBLIC "-//W3C//DTD SVG 20010904//EN"
 "http://www.w3.org/TR/2001/REC-SVG-20010904/DTD/svg10.dtd">
<svg version="1.0" xmlns="http://www.w3.org/2000/svg"
 width="1200.000000pt" height="1200.000000pt" viewBox="0 0 1200.000000 1200.000000"
 preserveAspectRatio="xMidYMid meet">
<metadata>
Created by potrace 1.14, written by Peter Selinger 2001-2017
</metadata>
<g transform="translate(0.000000,1200.000000) scale(0.100000,-0.100000)"
fill="#000000" stroke="none">
<path d="M5788 8995 c-3 -2 -62 -9 -183 -20 -22 -2 -50 -6 -61 -9 -12 -2 -39
-7 -60 -11 -40 -6 -92 -15 -109 -19 -5 -1 -37 -9 -70 -16 -155 -35 -359 -104
-520 -175 -65 -28 -188 -90 -275 -138 -107 -58 -348 -226 -435 -302 -16 -15
-46 -40 -65 -57 -76 -64 -191 -182 -294 -298 -80 -91 -272 -358 -297 -415 -5
-11 -19 -36 -31 -55 -48 -80 -153 -300 -183 -385 -10 -27 -23 -63 -30 -80 -8
-16 -17 -43 -21 -60 -4 -16 -9 -34 -13 -40 -3 -5 -6 -14 -8 -20 -3 -15 -10
-43 -34 -125 -11 -41 -23 -86 -26 -100 -2 -14 -9 -43 -14 -65 -5 -22 -11 -53
-14 -70 -2 -16 -7 -50 -11 -75 -23 -160 -28 -239 -28 -460 0 -214 8 -358 27
-460 3 -14 8 -41 12 -60 3 -19 7 -46 9 -60 2 -14 6 -32 9 -40 3 -8 8 -30 11
-48 5 -33 13 -65 16 -69 3 -3 3 -5 14 -53 26 -116 116 -357 194 -520 46 -98
133 -254 144 -258 4 -2 8 -10 8 -18 0 -8 5 -14 10 -14 6 0 10 -5 10 -11 0 -15
96 -152 186 -266 71 -89 214 -244 283 -307 78 -71 90 -82 112 -101 49 -41 86
-71 119 -95 18 -14 38 -30 44 -35 31 -30 319 -211 322 -203 1 1 10 -4 20 -13
16 -14 190 -103 204 -104 3 -1 25 -10 50 -21 38 -18 77 -32 215 -84 53 -19
182 -57 207 -60 4 -1 22 -6 40 -11 18 -6 42 -12 53 -14 11 -3 40 -9 65 -14 25
-6 61 -13 80 -15 19 -3 46 -8 60 -11 14 -3 50 -7 80 -11 30 -3 84 -9 120 -14
88 -10 635 -2 635 11 0 1 11 3 25 4 25 2 86 11 130 20 13 3 42 7 64 11 22 3
43 7 46 9 3 2 21 6 40 9 19 3 67 15 105 26 39 12 79 23 90 26 11 3 25 6 30 8
6 2 24 6 40 11 17 4 35 11 40 15 6 4 39 17 75 29 36 12 74 26 85 31 11 5 43
19 70 30 83 36 256 125 328 168 37 23 70 42 73 42 2 0 10 5 17 10 7 6 62 46
123 89 103 73 132 95 190 146 12 11 46 40 74 65 48 42 168 161 222 221 82 90
248 304 248 319 0 3 8 15 18 26 21 25 26 34 98 159 31 55 62 109 69 120 19 33
105 226 127 285 11 30 26 69 33 85 13 31 42 117 50 151 3 10 14 53 25 94 12
41 23 84 25 95 15 68 24 113 31 155 3 19 7 46 10 60 2 14 6 45 9 70 3 25 7 63
10 85 5 34 17 268 16 300 -3 120 -11 277 -14 300 -3 17 -8 57 -12 90 -4 32 -8
66 -10 75 -2 8 -10 53 -19 100 -9 47 -18 95 -21 108 -3 12 -7 31 -10 43 -11
53 -74 255 -103 329 -23 63 -30 79 -67 165 -28 67 -136 278 -156 307 -11 14
-19 29 -19 32 0 22 -209 311 -304 420 -98 114 -320 327 -390 375 -12 8 -23 18
-26 21 -3 3 -21 17 -40 30 -19 13 -37 27 -40 31 -9 12 -214 144 -283 182 -117
66 -240 127 -254 127 -7 0 -13 5 -13 10 0 6 -6 10 -13 10 -6 0 -60 20 -120 44
-59 24 -107 41 -107 39 0 -3 -7 0 -15 7 -8 7 -15 10 -15 6 0 -3 -22 3 -50 14
-27 11 -50 17 -50 15 0 -3 -13 1 -30 10 -16 9 -30 13 -30 11 0 -3 -18 1 -40 9
-22 8 -43 14 -45 14 -3 0 -18 2 -33 5 -15 4 -37 9 -49 11 -13 3 -33 7 -45 10
-12 2 -38 7 -58 10 -20 3 -45 7 -55 9 -11 2 -49 7 -85 11 -36 4 -76 10 -90 12
-28 5 -497 13 -502 8z m338 -400 c60 -3 125 -8 144 -10 19 -2 62 -6 95 -10 33
-3 68 -8 77 -11 25 -7 60 -14 93 -18 39 -5 167 -40 276 -76 399 -130 767 -359
1048 -653 25 -27 59 -62 75 -79 82 -84 244 -306 316 -433 54 -94 100 -186 100
-200 0 -8 4 -15 9 -15 7 0 28 -44 36 -80 1 -3 11 -27 23 -53 27 -59 95 -277
116 -372 48 -212 60 -333 60 -585 0 -167 -8 -330 -19 -363 -2 -6 -6 -30 -9
-52 -7 -54 -24 -139 -37 -189 -6 -23 -13 -50 -15 -60 -8 -45 -69 -228 -101
-306 -34 -84 -142 -310 -153 -320 -7 -7 -70 -110 -70 -116 0 -3 -5 -10 -10
-17 -6 -7 -36 -48 -67 -92 -32 -44 -62 -85 -68 -91 -5 -6 -21 -26 -35 -44 -30
-40 -159 -178 -214 -229 -21 -20 -51 -48 -65 -62 -75 -74 -402 -309 -429 -309
-5 0 -15 -7 -22 -15 -7 -8 -21 -15 -31 -15 -11 0 -19 -4 -19 -8 0 -9 -142 -78
-245 -120 -88 -35 -285 -100 -324 -107 -19 -3 -42 -10 -52 -16 -11 -5 -19 -8
-19 -5 0 2 -19 -1 -42 -6 -64 -14 -76 -17 -122 -22 -22 -3 -52 -8 -65 -10 -97
-20 -484 -29 -621 -14 -120 13 -155 19 -195 29 -22 6 -53 12 -70 13 -38 4 -62
10 -210 53 -277 80 -547 211 -780 377 -38 28 -72 53 -75 56 -3 3 -14 13 -26
21 -109 74 -454 430 -454 468 0 6 -4 11 -8 11 -5 0 -45 55 -89 123 -87 131
-181 306 -230 427 -46 113 -46 115 -48 120 -1 3 -17 57 -37 120 -36 115 -65
229 -73 285 -2 17 -6 39 -9 51 -2 12 -7 45 -11 75 -4 30 -9 65 -11 79 -3 26
-16 267 -15 285 0 6 3 60 5 120 3 61 7 130 10 154 8 68 16 124 21 151 13 63
27 146 27 157 0 5 4 15 9 24 4 9 10 28 13 43 11 59 70 236 113 338 24 59 44
110 43 114 -1 4 2 10 7 13 5 3 17 25 27 49 11 23 23 42 28 42 5 0 7 3 5 8 -2
4 4 21 14 37 10 17 23 40 29 53 5 12 14 28 20 35 5 6 38 56 74 109 98 147 237
312 360 427 21 20 53 50 70 66 18 17 50 44 71 60 21 17 43 35 49 40 6 6 47 36
91 67 44 32 85 62 92 68 7 5 15 10 18 10 3 0 31 16 61 35 104 67 380 202 427
209 7 1 17 4 22 8 13 8 196 66 226 72 13 2 56 12 94 21 87 21 96 23 154 31
160 22 183 24 300 29 62 2 116 7 119 9 2 3 8 3 12 1 5 -3 57 -7 116 -10z"/>
<path d="M4875 7302 c-3 -3 -11 -7 -18 -8 -53 -9 -127 -72 -145 -123 -12 -35
-9 -117 6 -154 7 -16 232 -249 502 -519 269 -269 490 -494 490 -498 0 -5 -222
-231 -493 -502 -452 -452 -494 -497 -506 -540 -44 -156 91 -291 247 -247 43
12 88 54 540 506 272 271 497 493 502 493 5 0 223 -215 486 -477 262 -263 495
-490 517 -505 35 -23 49 -26 103 -24 40 2 74 10 91 21 38 25 80 74 92 106 11
33 8 116 -8 153 -6 15 -232 249 -501 518 -270 270 -490 494 -490 498 0 5 222
230 493 502 444 444 494 498 505 538 47 170 -107 306 -271 241 -15 -6 -250
-233 -522 -505 l-495 -494 -487 487 c-269 267 -499 494 -513 502 -28 18 -116
40 -125 31z"/>
</g>
</svg>
